<?xml version="1.0" standalone="no"?>
<!DOCTYPE svg PUBLIC "-//W3C//DTD SVG 20010904//EN"
 "http://www.w3.org/TR/2001/REC-SVG-20010904/DTD/svg10.dtd">
<svg version="1.0" xmlns="http://www.w3.org/2000/svg"
 width="512.000000pt" height="512.000000pt" viewBox="0 0 512.000000 512.000000"
 preserveAspectRatio="xMidYMid meet">

<g transform="translate(0.000000,512.000000) scale(0.100000,-0.100000)"
fill="#000000" stroke="none">
<path d="M1285 4795 c-279 -61 -518 -298 -639 -635 -102 -283 -109 -619 -19
-930 46 -159 125 -270 218 -306 56 -21 152 -15 216 13 189 85 328 354 329 638
0 50 3 120 6 157 l7 66 86 31 c327 117 526 408 457 667 -42 157 -152 257 -328
299 -77 18 -251 18 -333 0z m315 -226 c74 -35 117 -81 137 -148 41 -143 -42
-287 -212 -367 -107 -50 -115 -51 -115 -17 0 15 14 90 31 165 31 132 32 138
15 163 -17 26 -22 27 -77 23 -68 -5 -100 -24 -142 -86 -35 -51 -67 -176 -67
-258 0 -35 -4 -65 -9 -68 -7 -5 -103 20 -156 40 -7 3 -20 -2 -29 -11 -19 -19
-22 -114 -6 -146 12 -22 85 -61 150 -80 25 -7 48 -15 52 -18 12 -10 -9 -308
-27 -395 -33 -157 -96 -246 -173 -246 -78 0 -129 95 -152 283 -17 138 -14 457
5 562 49 277 181 497 348 581 82 42 143 54 262 51 94 -2 118 -6 165 -28z"/>
<path d="M992 3357 l-53 -54 17 -42 c15 -39 18 -41 34 -26 19 17 65 146 58
165 -2 6 -27 -14 -56 -43z"/>
<path d="M2488 4543 l-38 -4 16 -31 c21 -40 16 -159 -8 -206 -14 -27 -14 -33
-3 -29 84 33 149 32 227 -3 42 -18 53 -19 115 -9 37 6 93 13 123 16 30 3 62
11 70 18 8 8 35 25 59 38 l44 25 -44 32 c-66 49 -194 107 -284 129 -83 20
-212 32 -277 24z"/>
<path d="M2152 4514 c-146 -73 -128 -265 25 -264 114 2 203 83 203 186 0 96
-113 135 -228 78z"/>
<path d="M3983 4335 c-24 -7 -65 -27 -92 -45 -64 -40 -177 -160 -220 -234 -48
-81 -99 -211 -107 -274 -6 -48 -11 -57 -66 -107 -67 -60 -112 -85 -169 -92
-45 -6 -139 14 -139 30 0 7 37 62 82 122 44 61 116 164 160 229 51 78 90 125
110 136 37 20 53 57 44 105 -10 50 -31 57 -112 40 -94 -20 -151 -18 -204 6
-106 48 -212 4 -273 -114 l-15 -29 -7 31 c-10 44 -29 51 -105 35 -94 -20 -160
-18 -215 7 -104 46 -204 4 -263 -111 -39 -77 -63 -193 -44 -212 18 -18 40 -1
88 68 44 62 79 82 141 83 43 1 85 -19 78 -36 -2 -8 -50 -79 -105 -157 -138
-198 -321 -366 -397 -366 -27 0 -34 5 -39 26 -13 49 5 189 41 319 74 271 80
302 66 319 -30 36 -170 -3 -205 -56 -16 -25 -82 -281 -115 -447 -25 -125 -27
-240 -5 -286 43 -91 191 -82 358 23 57 35 64 38 82 25 14 -11 35 -13 80 -9 44
3 78 0 123 -15 35 -10 85 -19 111 -19 54 0 170 38 239 78 58 34 176 38 270 11
77 -23 121 -24 192 -3 55 17 162 68 213 103 l29 19 36 -28 c20 -16 59 -34 87
-41 87 -20 194 24 304 127 45 42 49 44 55 24 11 -36 64 -88 101 -100 71 -24
168 21 275 129 115 115 112 108 86 221 l-23 95 -25 -37 c-74 -108 -184 -208
-231 -208 -48 0 -48 88 -3 342 22 121 27 166 19 195 l-9 38 -69 3 c-56 2 -75
8 -98 27 -33 28 -54 30 -115 10z m52 -312 c-43 -207 -43 -209 -75 -273 -32
-63 -64 -96 -100 -104 -56 -13 -84 52 -69 163 18 127 110 287 197 342 83 53
84 50 47 -128z m-784 44 l27 -12 -125 -178 c-93 -133 -132 -181 -156 -191 -18
-7 -63 -42 -102 -76 -92 -82 -141 -104 -220 -97 -67 6 -95 15 -95 28 0 5 63
97 140 205 77 108 149 213 161 233 12 21 33 42 50 48 l29 11 -5 -46 c-12 -96
22 -94 92 4 22 32 54 64 70 71 36 15 100 16 134 0z"/>
<path d="M1800 3874 c-60 -50 -194 -126 -266 -151 l-31 -11 -6 -138 c-8 -196
-36 -313 -107 -454 -69 -136 -162 -230 -285 -287 -48 -21 -79 -28 -151 -31
-83 -4 -97 -2 -153 23 -46 21 -79 46 -126 97 l-64 69 -45 -58 c-181 -230 -220
-547 -100 -808 l28 -60 7 61 c18 145 70 255 170 354 118 119 270 203 564 315
179 69 221 90 299 149 41 30 79 49 121 60 77 19 297 48 333 44 23 -3 18 -6
-28 -22 -30 -11 -156 -59 -280 -109 -124 -49 -290 -111 -370 -138 -323 -110
-485 -228 -589 -428 -77 -150 -102 -299 -66 -401 31 -87 115 -170 235 -230 68
-34 349 -136 410 -149 80 -17 159 -22 490 -32 179 -6 366 -13 415 -16 260 -14
908 76 1410 197 203 49 327 89 440 144 114 56 184 111 233 186 27 41 57 72 98
98 60 39 179 158 233 232 58 80 47 138 -52 268 -24 31 -58 78 -75 103 -41 60
-114 106 -205 129 -40 10 -137 41 -214 69 -207 76 -396 108 -928 157 -287 27
-339 29 -460 18 -99 -9 -75 5 47 26 99 17 119 17 508 -1 223 -10 432 -23 465
-28 124 -21 276 -68 303 -94 44 -42 70 -47 153 -31 103 20 146 12 216 -41 74
-55 211 -205 291 -319 47 -67 51 -59 21 40 -28 90 -66 165 -122 239 -40 53
-527 535 -540 535 -3 0 -32 -15 -64 -34 -117 -69 -238 -83 -332 -38 l-43 21
-77 -38 c-149 -75 -247 -89 -371 -54 -43 12 -78 16 -104 12 -21 -3 -47 -4 -57
-2 -11 3 -30 -2 -43 -11 -37 -24 -164 -72 -224 -85 -43 -9 -66 -8 -125 5 -40
9 -110 18 -157 19 -47 1 -89 4 -95 6 -5 2 -48 -15 -95 -38 -209 -101 -364 -79
-435 62 -28 55 -30 68 -29 160 2 98 25 231 73 415 11 41 19 75 18 76 -1 1 -31
-23 -67 -52z m1570 -915 c70 -6 142 -20 186 -35 50 -17 92 -24 146 -24 152 0
322 -62 588 -215 130 -74 160 -102 160 -148 0 -26 -11 -42 -64 -92 -35 -33
-80 -87 -101 -120 -61 -98 -142 -193 -188 -219 -23 -14 -97 -41 -165 -61 -67
-20 -169 -58 -225 -86 -99 -48 -179 -74 -432 -142 -111 -29 -131 -31 -265 -30
-80 1 -174 5 -209 8 l-63 7 49 22 c146 68 133 194 -23 226 -77 16 -146 7 -219
-29 -116 -57 -128 -147 -27 -201 l37 -19 -115 -1 c-136 0 -413 -24 -524 -45
-96 -18 -291 -22 -326 -5 -14 6 -36 27 -49 46 -52 75 -132 103 -418 142 -195
28 -253 44 -253 73 0 8 4 8 13 1 7 -6 25 -15 40 -21 44 -17 33 7 -32 69 -134
128 -135 199 -4 260 112 52 142 69 283 160 119 78 396 225 458 244 20 7 21 5
12 -19 -21 -54 29 -117 114 -145 61 -20 210 -9 269 19 134 65 151 171 38 228
-24 12 -45 24 -47 26 -5 4 98 29 321 76 137 29 289 49 430 54 188 8 502 6 605
-4z m-1452 -191 c14 -14 16 -45 2 -53 -23 -14 -69 33 -54 56 8 13 38 11 52 -3z
m-146 -90 c-15 -15 -26 -4 -18 18 5 13 9 15 18 6 9 -9 9 -15 0 -24z m233 2 c0
-13 -6 -25 -12 -27 -16 -6 -27 21 -19 43 9 23 31 11 31 -16z m750 -710 c0 -8
-8 -16 -17 -18 -13 -2 -18 3 -18 18 0 15 5 20 18 18 9 -2 17 -10 17 -18z
m-185 -64 c0 -20 -19 -31 -32 -18 -6 6 -7 15 -4 21 10 16 36 13 36 -3z m120
-10 c0 -8 -5 -18 -11 -22 -14 -8 -33 11 -25 25 10 16 36 13 36 -3z"/>
<path d="M2650 2830 c-126 -43 -148 -145 -44 -199 78 -40 235 -16 298 45 113
109 -68 219 -254 154z m106 -41 c9 -15 -11 -33 -30 -26 -9 4 -13 13 -10 22 7
17 30 20 40 4z m76 -64 c0 -5 -5 -11 -11 -13 -6 -2 -11 4 -11 13 0 9 5 15 11
13 6 -2 11 -8 11 -13z m-147 -16 c0 -7 -8 -15 -17 -17 -18 -3 -25 18 -11 32
10 10 28 1 28 -15z"/>
<path d="M3339 2806 c-68 -18 -112 -47 -132 -87 -61 -125 156 -202 331 -118
46 23 82 69 82 106 0 36 -47 81 -103 98 -60 18 -115 18 -178 1z m108 -62 c8
-21 -13 -42 -28 -27 -13 13 -5 43 11 43 6 0 13 -7 17 -16z m113 -35 c0 -23
-28 -26 -37 -3 -6 16 15 37 29 28 4 -3 8 -14 8 -25z m-240 -63 c0 -8 -5 -18
-10 -21 -17 -11 -40 3 -34 20 8 19 44 20 44 1z"/>
<path d="M3994 2739 c-86 -20 -125 -98 -68 -136 33 -21 122 -29 168 -13 48 16
88 63 77 92 -19 51 -96 76 -177 57z m94 -110 c-2 -6 -8 -10 -13 -10 -5 0 -11
4 -13 10 -2 6 4 11 13 11 9 0 15 -5 13 -11z"/>
<path d="M2300 2516 c-111 -20 -215 -79 -246 -137 -36 -70 -3 -153 76 -194
207 -106 553 0 553 168 0 81 -64 136 -189 162 -81 17 -106 17 -194 1z m175
-96 c0 -20 -5 -25 -25 -25 -28 0 -41 32 -18 46 23 15 43 5 43 -21z m-250 -53
c21 -16 15 -61 -11 -71 -42 -16 -76 50 -36 73 22 14 25 13 47 -2z m181 -35
c34 -23 15 -76 -26 -70 -36 5 -48 32 -26 57 20 22 34 26 52 13z"/>
<path d="M3063 2461 c-69 -32 -82 -86 -30 -125 40 -29 147 -30 197 0 45 26 65
65 50 95 -26 48 -141 64 -217 30z m127 -46 c0 -8 -4 -15 -10 -15 -5 0 -10 7
-10 15 0 8 5 15 10 15 6 0 10 -7 10 -15z m-72 -22 c5 -18 -28 -29 -38 -12 -5
7 -6 17 -3 22 7 12 35 5 41 -10z"/>
<path d="M3984 2425 c-93 -46 -99 -116 -15 -159 54 -28 175 -19 229 17 69 45
70 112 2 147 -58 30 -151 27 -216 -5z m104 -76 c-2 -6 -8 -10 -13 -10 -5 0
-11 4 -13 10 -2 6 4 11 13 11 9 0 15 -5 13 -11z"/>
<path d="M1263 2415 c-239 -65 -293 -240 -101 -325 159 -70 439 -3 504 121 60
116 -68 220 -269 218 -45 0 -106 -7 -134 -14z m312 -130 c0 -23 -5 -31 -22
-33 -31 -5 -49 31 -27 53 25 25 49 15 49 -20z"/>
<path d="M3433 2359 c-122 -21 -224 -84 -258 -159 -17 -38 -18 -45 -4 -83 10
-31 26 -50 62 -74 64 -43 114 -56 217 -55 140 0 262 51 324 135 28 38 28 106
0 144 -55 73 -209 115 -341 92z m65 -135 c4 -27 -26 -40 -46 -20 -13 13 -13
18 -2 31 18 21 44 15 48 -11z m117 -55 c0 -7 -8 -15 -17 -17 -18 -3 -25 18
-11 32 10 10 28 1 28 -15z m-247 -21 c-4 -30 -48 -39 -48 -10 0 24 8 32 32 32
14 0 19 -6 16 -22z"/>
<path d="M1772 2045 c-159 -49 -180 -175 -36 -220 136 -43 324 31 324 127 0
37 -46 83 -98 98 -50 14 -138 12 -190 -5z m51 -59 c9 -22 -18 -40 -33 -22 -6
9 -9 20 -5 26 9 15 32 12 38 -4z m85 -49 c2 -12 -3 -17 -17 -17 -12 0 -21 6
-21 13 0 31 32 34 38 4z"/>
<path d="M4605 2050 c-14 -22 -219 -178 -335 -255 -151 -99 -343 -209 -425
-243 -165 -68 -512 -146 -826 -187 -355 -45 -1283 -66 -1472 -32 -54 9 -111
23 -125 31 -26 13 -154 38 -257 50 l-50 6 125 -120 125 -119 -106 -1 -107 0
-116 -153 c-64 -84 -116 -156 -116 -160 0 -4 52 -77 116 -162 l116 -155 430 0
429 0 62 -44 c294 -208 680 -208 974 0 l62 44 423 0 423 0 108 134 c136 168
140 173 130 189 -4 7 -60 79 -123 160 l-115 147 -100 0 -99 0 209 202 c433
415 685 678 651 678 -3 0 -8 -4 -11 -10z m-2804 -1066 c52 -26 73 -102 45
-167 -20 -48 -59 -69 -138 -75 l-68 -5 0 130 c0 71 3 133 8 137 11 12 119 -2
153 -20z m282 14 c9 -27 -6 -38 -49 -38 -42 0 -44 -1 -44 -30 0 -29 2 -30 45
-30 38 0 45 -3 45 -20 0 -17 -7 -20 -45 -20 -45 0 -45 0 -45 -35 0 -35 0 -35
44 -35 36 0 45 -4 49 -21 7 -26 -6 -31 -84 -27 l-64 3 -3 119 c-1 66 0 126 2
133 7 18 142 18 149 1z m135 -100 l3 -108 49 0 c47 0 50 -2 50 -25 0 -25 -1
-25 -80 -25 l-80 0 0 128 c0 71 3 132 7 136 4 4 16 6 28 4 18 -3 20 -11 23
-110z m227 -23 l0 -130 -27 -3 -28 -3 0 136 0 136 28 -3 27 -3 0 -130z m112
123 c4 -7 19 -53 34 -103 15 -49 30 -83 32 -75 3 8 18 54 33 103 24 73 31 87
49 87 12 0 24 -3 27 -6 3 -3 -14 -62 -38 -130 -24 -69 -44 -128 -44 -130 0 -3
-14 -4 -32 -2 -31 3 -32 5 -74 130 -23 70 -39 129 -36 132 10 11 41 6 49 -6z
m383 -13 c0 -23 -4 -25 -45 -25 -43 0 -45 -1 -45 -30 0 -29 2 -30 45 -30 38 0
45 -3 45 -20 0 -17 -7 -20 -45 -20 -45 0 -45 0 -45 -35 0 -35 0 -35 45 -35 42
0 45 -2 45 -25 0 -26 -1 -26 -72 -23 l-73 3 -3 119 c-1 66 0 126 2 133 4 9 27
13 76 13 68 0 70 -1 70 -25z m202 15 c60 -17 77 -74 38 -123 l-21 -26 35 -56
36 -55 -31 0 c-25 0 -35 8 -61 50 -40 64 -56 64 -60 3 -3 -44 -5 -48 -30 -51
l-28 -3 0 129 c0 71 3 132 7 135 10 10 73 8 115 -3z m195 -45 l27 -56 28 56
c25 48 32 55 58 55 17 0 30 -2 30 -4 0 -2 -20 -40 -45 -84 -37 -66 -45 -89
-45 -131 0 -48 -2 -51 -25 -51 -23 0 -25 3 -25 50 0 40 -9 65 -44 129 -24 44
-41 82 -38 85 3 3 16 6 29 6 18 0 29 -12 50 -55z"/>
<path d="M1700 875 c0 -84 0 -85 25 -85 38 0 75 42 75 85 0 43 -37 85 -75 85
-25 0 -25 -1 -25 -85z"/>
<path d="M3080 925 c0 -24 5 -35 14 -35 29 0 46 13 46 35 0 22 -17 35 -46 35
-9 0 -14 -11 -14 -35z"/>
</g>
</svg>
