<?xml version="1.0" standalone="no"?>
<!DOCTYPE svg PUBLIC "-//W3C//DTD SVG 20010904//EN"
 "http://www.w3.org/TR/2001/REC-SVG-20010904/DTD/svg10.dtd">
<svg version="1.0" xmlns="http://www.w3.org/2000/svg"
 width="300.000000pt" height="223.000000pt" viewBox="0 0 300.000000 223.000000"
 preserveAspectRatio="xMidYMid meet">

<g transform="translate(0.000000,223.000000) scale(0.100000,-0.100000)"
fill="#000000" stroke="none">
<path d="M1415 2219 c-340 -40 -649 -242 -829 -539 l-45 -75 -133 3 c-154 4
-238 -11 -335 -60 -64 -31 -79 -48 -44 -48 29 0 35 -17 11 -30 -26 -14 -26
-30 0 -30 27 0 97 -36 102 -52 2 -6 -8 -44 -23 -82 -15 -39 -33 -99 -39 -134
-12 -59 -10 -196 3 -209 3 -3 41 24 84 59 110 92 233 168 233 145 0 -3 -40
-45 -89 -95 -90 -92 -131 -156 -131 -205 0 -20 11 -35 42 -57 78 -57 131 -154
165 -302 18 -81 45 -111 100 -111 41 0 94 23 128 54 21 18 22 18 81 -54 72
-86 173 -170 284 -237 406 -244 943 -199 1305 109 32 28 62 51 66 51 4 0 31
-16 61 -35 29 -20 89 -47 133 -62 68 -22 99 -26 202 -27 67 -1 124 2 128 6 4
4 -1 15 -10 25 -17 16 -16 18 9 26 l27 9 -31 31 c-17 18 -48 62 -69 98 l-39
67 69 47 c78 53 135 112 155 161 16 39 18 68 4 59 -6 -4 -10 7 -10 25 0 30 0
30 -28 16 -57 -30 -218 -46 -267 -27 -20 8 -20 8 2 15 12 4 33 16 47 27 l26
20 -7 133 c-8 186 -3 215 58 282 55 61 63 100 28 135 -25 25 -97 57 -159 70
-44 9 -47 12 -65 62 -173 490 -675 798 -1200 736z m255 -49 c424 -49 777 -336
903 -737 14 -44 29 -104 33 -132 l7 -51 -180 0 c-228 0 -239 2 -247 45 -20
106 -135 260 -254 339 l-67 44 3 123 c2 68 7 117 11 110 13 -20 44 37 49 90
l4 47 -79 25 c-119 38 -234 57 -342 57 -96 0 -97 0 -191 -49 -52 -27 -113 -54
-135 -61 -22 -7 -80 -30 -128 -52 -49 -22 -106 -42 -128 -45 -43 -6 -79 -40
-79 -75 0 -34 30 -92 69 -133 21 -22 51 -62 66 -90 16 -27 36 -61 46 -74 18
-23 18 -24 -10 -60 -16 -20 -42 -60 -58 -90 -26 -49 -34 -55 -88 -75 -55 -20
-264 -144 -342 -202 -17 -13 -34 -24 -37 -24 -12 0 -5 144 10 218 21 104 48
182 95 276 194 390 632 626 1069 576z m-295 -231 c28 -11 75 -24 106 -29 51
-9 64 -8 140 19 100 34 195 46 237 28 26 -11 22 -12 -52 -13 -54 -1 -114 -11
-181 -29 -112 -31 -170 -33 -260 -8 -33 10 -85 18 -115 18 l-56 0 31 22 c34
24 68 22 150 -8z m469 -51 c-18 -35 -26 -111 -49 -488 -16 -270 -21 -313 -40
-350 -7 -14 -16 -51 -20 -84 -4 -32 -13 -76 -20 -97 -21 -57 -65 -281 -65
-325 0 -36 -1 -37 -14 -19 -8 11 -48 88 -89 170 -77 154 -119 269 -111 301 8
30 -44 192 -76 239 -16 24 -47 58 -69 76 -58 50 -271 371 -271 408 0 20 55 85
84 100 14 8 23 19 19 24 -3 6 -1 7 5 3 7 -4 22 0 34 8 32 22 137 20 225 -4
l71 -20 69 24 c73 26 224 57 316 65 16 1 17 -1 1 -31z m-896 -23 c33 -28 57
-77 48 -100 -3 -10 -19 -15 -45 -15 -49 0 -61 18 -61 89 0 59 12 65 58 26z
m1007 -287 c28 -22 68 -61 89 -86 36 -44 95 -155 111 -211 7 -23 7 -24 -51
-17 -33 3 -107 16 -166 28 -96 19 -108 24 -108 42 0 25 19 228 26 274 5 30 7
31 27 21 12 -7 45 -30 72 -51z m-1438 8 c1 -1 -11 -40 -27 -86 -35 -101 -60
-215 -60 -273 -1 -33 -3 -38 -11 -24 -22 38 -94 12 -217 -80 -41 -30 -75 -53
-77 -51 -6 6 44 186 75 266 26 68 30 86 19 98 -17 21 -64 44 -127 64 l-54 17
60 26 c54 23 120 39 207 51 26 3 207 -3 212 -8z m592 -153 c17 -31 30 -57 28
-58 -1 -1 -37 -5 -80 -9 l-78 -7 11 23 c24 47 74 116 81 112 4 -2 21 -30 38
-61z m1591 -33 c20 -6 21 -8 5 -8 -11 0 -29 3 -40 8 -25 11 1 11 35 0z m60
-49 c14 -10 25 -24 25 -32 0 -15 -47 -44 -87 -53 -25 -6 -27 -3 -37 45 -6 27
-11 55 -11 61 0 16 80 1 110 -21z m74 -22 c20 -29 4 -72 -40 -105 -24 -19 -38
-41 -49 -77 -16 -54 -19 -185 -6 -275 7 -50 6 -54 -20 -77 -57 -47 -120 -60
-289 -59 -175 1 -305 19 -447 64 -51 16 -127 34 -168 41 -60 10 -75 16 -75 30
0 10 4 20 9 23 13 8 48 165 66 290 8 60 15 110 15 111 0 2 35 -6 78 -16 113
-28 343 -49 532 -49 226 0 330 23 360 80 9 17 6 25 -17 46 l-28 27 32 -17 c17
-9 38 -25 47 -37z m-1654 -16 c19 -26 63 -68 97 -95 73 -58 112 -128 106 -193
-3 -24 4 -64 17 -99 11 -33 17 -63 13 -66 -5 -4 -42 -12 -83 -19 -220 -35
-499 -174 -677 -335 -73 -67 -141 -100 -183 -91 -40 9 -48 22 -70 113 -34 140
-97 253 -166 294 -27 16 -34 26 -34 51 0 27 31 97 43 97 2 0 3 -10 3 -22 -1
-17 5 -24 22 -26 21 -3 54 18 165 107 65 52 284 195 367 240 100 53 182 75
335 89 6 1 26 -20 45 -45z m-762 -210 c-1 -49 -3 -56 -5 -25 -2 23 -7 42 -11
42 -4 0 -40 -33 -82 -72 l-75 -73 83 85 c45 47 82 91 82 98 0 6 2 12 5 12 3 0
4 -30 3 -67z m-24 -49 c4 -15 6 -27 4 -28 -2 -1 -26 -21 -54 -44 -49 -40 -84
-53 -84 -33 0 12 109 131 120 131 4 0 11 -12 14 -26z m1070 -279 c15 -35 46
-94 68 -131 22 -36 37 -68 34 -71 -12 -13 -184 20 -256 48 -91 35 -220 126
-199 140 32 21 245 75 304 78 16 1 27 -14 49 -64z m416 33 c47 -10 98 -25 114
-31 l29 -13 -54 -43 c-65 -53 -198 -118 -258 -127 -39 -6 -43 -5 -38 12 3 10
13 57 22 104 10 46 21 95 26 107 9 26 11 25 159 -9z m370 -83 c58 -8 147 -15
198 -15 l92 0 -31 -62 c-75 -150 -219 -314 -352 -401 -327 -216 -736 -243
-1082 -71 -118 59 -205 124 -310 237 l-87 92 34 28 c56 48 179 126 266 169
l83 42 37 -36 c107 -103 265 -166 435 -173 65 -2 83 -7 103 -26 23 -22 24 -22
24 -2 0 27 14 36 75 51 80 20 206 87 265 142 62 57 34 54 250 25z m683 -38
c-27 -38 -155 -150 -197 -174 -15 -8 -11 -19 30 -93 25 -46 57 -98 70 -116 31
-40 23 -44 -85 -44 -108 0 -241 39 -329 96 l-23 15 39 47 c57 69 115 162 147
236 l27 65 132 0 c90 -1 143 4 171 14 51 18 55 7 18 -46z"/>
<path d="M1620 1792 c0 -4 20 -18 45 -30 55 -26 58 -21 8 13 -39 26 -53 31
-53 17z"/>
<path d="M1241 1736 c-26 -48 6 -90 53 -68 30 13 35 51 10 76 -22 23 -49 20
-63 -8z m39 -27 c0 -5 -4 -9 -10 -9 -5 0 -10 7 -10 16 0 8 5 12 10 9 6 -3 10
-10 10 -16z"/>
<path d="M1550 1711 c-15 -29 -12 -83 6 -109 17 -24 53 -29 87 -11 30 16 37
28 37 67 0 57 -14 72 -70 72 -39 0 -52 -4 -60 -19z"/>
<path d="M1170 1713 c1 -12 39 -79 40 -70 0 12 -28 77 -34 77 -4 0 -6 -3 -6
-7z"/>
<path d="M1470 1633 c1 -5 10 -24 21 -43 11 -19 18 -27 15 -17 -4 11 -9 30
-12 43 -6 22 -25 35 -24 17z"/>
<path d="M1331 1602 c-48 -38 -20 -142 38 -142 9 0 31 9 49 20 28 17 32 25 32
64 0 49 -13 64 -62 72 -24 4 -40 1 -57 -14z"/>
<path d="M1584 1414 c-31 -47 11 -107 51 -74 21 17 19 64 -3 83 -24 22 -29 22
-48 -9z m36 -36 c0 -16 -3 -19 -11 -11 -6 6 -8 16 -5 22 11 17 16 13 16 -11z"/>
<path d="M1397 1362 c-15 -15 -27 -35 -27 -43 0 -14 29 16 51 54 14 24 7 21
-24 -11z"/>
<path d="M1685 1328 l-16 -33 20 25 c20 24 26 40 16 40 -2 0 -12 -15 -20 -32z"/>
<path d="M1516 1164 c-24 -23 -21 -96 4 -119 23 -21 84 -15 109 10 23 23 20
93 -4 111 -25 19 -90 18 -109 -2z"/>
<path d="M1572 918 c-15 -15 -16 -74 -1 -83 5 -4 21 -4 34 -1 33 8 44 50 20
76 -21 23 -36 25 -53 8z m31 -33 c4 -8 2 -17 -3 -20 -6 -4 -10 3 -10 14 0 25
6 27 13 6z"/>
<path d="M1666 894 c-4 -9 -4 -19 -1 -22 2 -3 7 3 11 12 4 9 4 19 1 22 -2 3
-7 -3 -11 -12z"/>
<path d="M1083 648 c-4 -7 -8 -20 -8 -28 0 -8 -7 -15 -15 -15 -8 0 -15 -9 -15
-20 0 -11 -6 -19 -13 -17 -8 1 -11 -1 -8 -6 3 -5 -2 -18 -10 -28 -9 -10 -12
-12 -8 -4 4 9 3 12 -2 7 -5 -5 -9 -16 -9 -25 0 -9 -6 -16 -13 -14 -8 1 -11 -1
-8 -6 6 -10 -38 -74 -46 -67 -3 3 -5 -3 -4 -12 1 -23 82 -97 95 -88 6 3 16 23
22 44 l11 38 40 -15 c36 -14 42 -14 68 1 34 20 44 21 34 5 -4 -7 2 -4 14 6 12
11 20 21 17 24 -7 7 57 92 65 87 4 -3 14 3 21 13 7 9 10 14 6 11 -5 -4 -53 17
-107 47 -55 30 -104 54 -110 54 -6 0 -8 5 -5 10 3 6 4 10 1 10 -3 0 -8 -6 -13
-12z m67 -147 c0 -5 -7 -12 -16 -15 -24 -9 -28 -7 -14 9 14 17 30 20 30 6z"/>
<path d="M1996 604 l-37 -44 36 -61 c19 -33 32 -65 29 -71 -5 -7 -2 -8 6 -3
10 6 12 4 7 -9 -5 -11 -3 -15 5 -10 8 5 9 2 5 -10 -4 -9 -3 -15 2 -12 5 4 21
-14 35 -38 31 -53 49 -61 73 -33 l18 22 -25 -20 c-21 -16 -20 -14 4 13 26 28
45 79 25 66 -4 -2 -11 5 -14 17 -5 14 -1 25 12 34 24 19 26 19 85 -11 46 -24
53 -25 63 -10 7 9 16 12 20 8 5 -4 5 -2 2 4 -4 6 0 20 8 30 8 10 14 24 15 29
0 6 -38 25 -85 44 -46 19 -82 38 -79 42 3 5 -3 6 -12 2 -13 -5 -15 -3 -9 7 5
9 4 11 -4 6 -15 -9 -53 3 -46 15 3 5 -2 6 -11 2 -12 -4 -15 -3 -10 5 4 8 2 10
-8 6 -8 -3 -27 1 -43 10 -29 15 -30 14 -67 -30z m104 -79 c20 -24 6 -28 -15
-5 -10 11 -13 20 -8 20 6 0 16 -7 23 -15z"/>
<path d="M1791 474 c-58 -24 -106 -45 -107 -47 -5 -4 58 -97 65 -97 3 0 30 18
59 41 38 28 52 35 48 22 -13 -46 -38 -149 -41 -172 -2 -19 2 -27 13 -29 65 -7
90 -7 85 2 -4 5 3 7 15 4 12 -4 20 -2 17 2 -7 12 32 23 46 14 8 -5 9 -3 4 6
-6 10 -3 12 13 8 12 -4 20 -2 17 2 -7 12 32 23 46 14 8 -5 9 -3 4 6 -6 9 -1
10 16 5 13 -3 19 -3 14 2 -6 4 -23 29 -38 55 -15 26 -32 50 -39 54 -6 4 -8 3
-5 -3 6 -9 -70 -60 -77 -52 -2 2 2 43 9 91 6 48 8 85 5 83 -4 -3 -15 4 -25 15
-10 11 -23 20 -29 19 -6 0 -58 -20 -115 -45z"/>
<path d="M1276 469 c-3 -8 -21 -68 -41 -134 -19 -66 -38 -128 -41 -137 -4 -13
4 -18 40 -23 25 -4 44 -11 41 -15 -2 -4 7 -5 20 -2 14 2 25 7 25 11 0 4 5 45
11 91 8 71 16 95 49 148 38 60 39 62 16 62 -13 0 -44 3 -69 6 -35 5 -48 3 -51
-7z"/>
<path d="M1533 443 c9 -2 23 -2 30 0 6 3 -1 5 -18 5 -16 0 -22 -2 -12 -5z"/>
<path d="M1420 381 l0 -58 69 12 70 12 -65 -71 c-48 -53 -63 -76 -58 -91 3
-11 6 -25 6 -32 1 -7 4 -11 7 -10 3 0 58 -5 121 -13 63 -8 120 -15 125 -15 6
0 13 -7 17 -15 4 -8 4 8 0 35 -3 28 -6 59 -7 70 0 18 -6 20 -64 17 l-64 -4 51
66 c41 51 52 73 52 101 0 20 -6 37 -12 39 -7 3 -66 7 -130 10 l-118 5 0 -58z"/>
<path d="M1149 363 c-13 -16 -12 -17 4 -4 16 13 21 21 13 21 -2 0 -10 -8 -17
-17z"/>
<path d="M950 345 c13 -14 26 -25 28 -25 3 0 -5 11 -18 25 -13 14 -26 25 -28
25 -3 0 5 -11 18 -25z"/>
<path d="M1000 306 c0 -2 8 -10 18 -17 15 -13 16 -12 3 4 -13 16 -21 21 -21
13z"/>
<path d="M1847 169 c7 -7 15 -10 18 -7 3 3 -2 9 -12 12 -14 6 -15 5 -6 -5z"/>
<path d="M1498 113 c6 -2 18 -2 25 0 6 3 1 5 -13 5 -14 0 -19 -2 -12 -5z"/>
<path d="M1588 103 c6 -2 18 -2 25 0 6 3 1 5 -13 5 -14 0 -19 -2 -12 -5z"/>
<path d="M1668 93 c6 -2 18 -2 25 0 6 3 1 5 -13 5 -14 0 -19 -2 -12 -5z"/>
</g>
</svg>
