<?xml version="1.0" standalone="no"?>
<!DOCTYPE svg PUBLIC "-//W3C//DTD SVG 20010904//EN"
 "http://www.w3.org/TR/2001/REC-SVG-20010904/DTD/svg10.dtd">
<svg version="1.0" xmlns="http://www.w3.org/2000/svg"
 width="580.000000pt" height="387.000000pt" viewBox="0 0 580.000000 387.000000"
 preserveAspectRatio="xMidYMid meet">

<g transform="translate(0.000000,387.000000) scale(0.100000,-0.100000)"
fill="#000000" stroke="none">
<path d="M2777 2563 c-4 -3 -7 -16 -7 -28 0 -18 11 -26 58 -43 151 -56 298
-187 370 -330 21 -42 41 -87 44 -100 6 -23 23 -28 47 -13 17 11 3 58 -46 153
-68 130 -188 245 -328 313 -100 49 -128 59 -138 48z"/>
<path d="M2737 2463 c-4 -21 2 -33 23 -53 21 -19 27 -33 23 -49 -6 -25 -16
-32 -56 -40 -30 -6 -30 -7 -89 -226 -32 -121 -58 -225 -58 -232 0 -7 6 -13 13
-13 19 0 201 51 209 58 10 10 -12 92 -24 92 -6 0 -23 -9 -40 -21 -16 -12 -31
-19 -34 -16 -4 4 34 155 52 206 3 10 30 -10 84 -64 44 -43 77 -81 74 -84 -3
-3 -23 -4 -45 -2 l-41 3 7 -44 c4 -23 10 -47 15 -51 9 -11 181 33 185 47 16
65 20 71 54 71 31 0 41 -8 57 -43 1 -2 19 0 39 4 35 6 37 8 32 39 -3 18 -20
61 -37 96 -77 155 -211 276 -365 329 -73 25 -72 25 -78 -7z m166 -55 c94 -50
204 -164 255 -267 23 -46 42 -89 42 -96 0 -26 -32 -26 -56 0 -43 46 -124 19
-124 -42 0 -18 -8 -24 -42 -33 -24 -6 -58 -15 -77 -20 -41 -11 -37 -13 -47 24
l-7 29 52 -5 c28 -3 54 -2 56 2 6 10 -198 211 -206 202 -10 -11 -82 -273 -76
-278 3 -3 23 6 46 20 51 33 63 33 59 -1 -3 -24 -10 -28 -88 -49 -46 -13 -85
-22 -87 -21 -1 2 23 98 54 214 54 205 56 211 83 217 63 12 83 86 34 125 -14
11 -23 25 -20 30 8 13 67 -8 149 -51z"/>
<path d="M2857 2312 c-22 -25 -21 -75 1 -95 10 -10 35 -17 55 -17 30 0 39 5
52 30 18 35 11 76 -15 90 -30 16 -75 12 -93 -8z m83 -12 c27 -27 25 -56 -4
-75 -52 -35 -105 34 -60 79 21 21 40 20 64 -4z"/>
<path d="M2947 2142 c-10 -10 -17 -26 -17 -35 0 -19 26 -47 45 -47 41 0 61 71
26 90 -27 14 -35 13 -54 -8z m41 -11 c19 -11 11 -45 -11 -49 -19 -4 -32 20
-23 43 6 17 15 19 34 6z"/>
<path d="M2072 1750 c-20 -19 -22 -30 -22 -135 0 -111 1 -114 26 -134 15 -12
34 -21 44 -21 10 0 29 9 44 21 25 20 26 23 26 133 0 105 -2 114 -23 134 -29
28 -67 28 -95 2z m66 -132 c-3 -95 -4 -103 -23 -103 -18 0 -20 8 -23 89 -3
103 0 116 28 116 20 0 21 -5 18 -102z"/>
<path d="M2227 1764 c-4 -4 -7 -72 -7 -151 l0 -143 25 0 c25 0 25 1 26 83 l1
82 27 -82 c24 -77 28 -83 54 -83 l28 0 -3 148 c-3 144 -3 147 -25 150 -22 3
-23 1 -24 -90 l0 -93 -28 90 c-22 69 -33 91 -48 93 -10 2 -22 0 -26 -4z"/>
<path d="M2410 1620 l0 -150 60 0 c53 0 60 2 60 19 0 16 -8 20 -37 23 l-38 3
-3 128 c-2 119 -4 127 -22 127 -19 0 -20 -7 -20 -150z"/>
<path d="M2567 1764 c-4 -4 -7 -72 -7 -151 l0 -143 25 0 26 0 -3 147 c-3 124
-5 148 -18 151 -9 1 -19 0 -23 -4z"/>
<path d="M2640 1620 c0 -142 1 -150 20 -150 17 0 19 8 22 88 l3 87 28 -87 c25
-79 31 -88 53 -88 l24 0 0 150 c0 143 -1 150 -20 150 -19 0 -20 -7 -21 -92 0
-102 -4 -100 -40 20 -18 63 -24 72 -45 72 l-24 0 0 -150z"/>
<path d="M2827 1763 c-3 -5 -5 -72 -5 -150 l0 -143 64 0 c57 0 64 2 64 20 0
17 -7 20 -40 20 l-40 0 0 40 c0 38 2 40 30 40 25 0 30 4 30 25 0 21 -5 25 -30
25 -28 0 -30 2 -30 40 l0 40 40 0 c36 0 40 3 40 25 0 24 -3 25 -59 25 -33 0
-62 -3 -64 -7z"/>
<path d="M3018 1764 c-5 -4 -8 -72 -8 -151 l0 -143 25 0 c24 0 25 3 25 55 0
54 0 55 29 55 41 0 71 40 71 95 0 61 -24 86 -86 92 -27 3 -52 1 -56 -3z m90
-90 c2 -31 -1 -43 -13 -48 -27 -10 -35 2 -35 50 0 41 2 45 23 42 18 -2 23 -10
25 -44z"/>
<path d="M3190 1620 c0 -143 1 -150 20 -150 19 0 20 7 20 150 0 143 -1 150
-20 150 -19 0 -20 -7 -20 -150z"/>
<path d="M3267 1763 c-4 -3 -7 -15 -7 -25 0 -14 8 -18 40 -18 22 0 40 -4 40
-8 0 -5 -18 -53 -40 -107 -55 -136 -56 -135 30 -135 63 0 70 2 70 20 0 17 -7
20 -40 20 -22 0 -40 4 -40 9 0 6 19 57 41 115 23 57 39 112 36 120 -5 12 -21
16 -65 16 -32 0 -62 -3 -65 -7z"/>
<path d="M3430 1746 c0 -22 5 -25 39 -28 l38 -3 -38 -95 c-22 -52 -39 -107
-39 -122 0 -28 1 -28 65 -28 58 0 65 2 65 20 0 17 -7 20 -40 20 -22 0 -40 4
-40 8 0 5 18 53 40 108 54 131 52 138 -27 142 -61 3 -63 2 -63 -22z"/>
<path d="M3640 1768 c0 -2 -11 -67 -25 -144 -14 -76 -25 -142 -25 -146 0 -5
11 -8 25 -8 19 0 25 5 25 23 1 57 53 66 58 9 3 -26 7 -32 28 -32 13 0 24 3 24
8 0 4 -11 70 -23 147 l-23 140 -32 3 c-18 2 -32 2 -32 0z m42 -180 c-2 -5 -7
-8 -13 -8 -11 0 -12 63 -1 74 7 8 21 -53 14 -66z"/>
<path d="M2292 1411 c-21 -13 -11 -75 12 -80 20 -3 46 22 46 45 0 13 -27 44
-38 44 -4 0 -13 -4 -20 -9z m36 -42 c-1 -13 -10 -24 -18 -24 -19 0 -26 45 -8
56 18 11 30 -4 26 -32z"/>
<path d="M2445 1412 c-9 -9 -5 -71 5 -77 6 -3 10 3 10 14 0 28 18 27 30 -1 7
-19 9 -17 9 18 1 37 -2 42 -24 46 -13 3 -27 3 -30 0z m45 -22 c0 -5 -7 -10
-15 -10 -8 0 -15 5 -15 10 0 6 7 10 15 10 8 0 15 -4 15 -10z"/>
<path d="M2561 1406 c-7 -8 -11 -27 -9 -43 2 -22 8 -28 27 -28 13 0 26 7 28
15 4 12 3 13 -5 1 -15 -20 -42 -6 -42 23 0 27 22 40 39 23 8 -8 11 -8 11 0 0
6 -7 14 -16 17 -21 8 -20 8 -33 -8z"/>
<path d="M2636 1404 c-19 -19 -20 -35 -3 -58 21 -29 51 -16 55 23 5 47 -23 65
-52 35z m42 -31 c-2 -17 -9 -28 -18 -28 -9 0 -16 11 -18 28 -3 22 1 27 18 27
17 0 21 -5 18 -27z"/>
<path d="M2768 1387 l-16 -32 -11 28 c-16 40 -31 33 -30 -15 1 -40 2 -41 9
-13 l7 30 12 -30 13 -30 13 25 c14 25 14 25 15 3 0 -13 5 -23 10 -23 12 0 14
77 2 84 -5 3 -16 -9 -24 -27z"/>
<path d="M3046 1405 c3 -11 9 -30 11 -43 7 -32 23 -38 23 -8 0 14 5 28 10 31
6 3 10 12 10 18 0 7 -7 3 -15 -7 -16 -21 -16 -21 -34 9 l-13 20 8 -20z"/>
<path d="M3163 1413 c-20 -7 -15 -31 7 -43 11 -6 20 -16 20 -22 0 -5 -9 -8
-20 -5 -11 3 -20 1 -20 -4 0 -13 48 -11 56 3 4 6 -4 20 -20 33 -14 12 -23 24
-20 28 4 4 14 1 22 -6 12 -10 14 -9 11 2 -6 17 -18 22 -36 14z"/>
<path d="M3304 1412 c-30 -21 -19 -82 16 -82 35 0 46 61 16 82 -6 4 -13 8 -16
8 -3 0 -10 -4 -16 -8z m34 -39 c-2 -17 -9 -28 -18 -28 -9 0 -16 11 -18 28 -3
22 1 27 18 27 17 0 21 -5 18 -27z"/>
<path d="M3381 1406 c-7 -8 -11 -27 -9 -43 2 -22 9 -29 31 -31 22 -3 27 1 27
17 0 12 -4 21 -10 21 -5 0 -7 -7 -3 -16 4 -12 1 -15 -13 -12 -13 2 -19 12 -19
28 0 19 5 25 23 24 25 -1 29 11 6 20 -21 8 -20 8 -33 -8z"/>
<path d="M2218 1371 l17 -38 12 36 c16 46 16 50 -2 27 -13 -17 -15 -17 -21 -3
-3 10 -10 17 -14 17 -5 0 -1 -17 8 -39z"/>
<path d="M2363 1375 c2 -34 6 -41 26 -43 13 -2 28 2 32 10 12 18 11 68 -1 68
-5 0 -10 -16 -10 -35 0 -43 -27 -49 -36 -7 -10 46 -13 49 -11 7z"/>
<path d="M2821 1368 c1 -24 3 -36 6 -26 2 9 15 19 29 22 34 9 28 40 -9 44 -26
3 -27 2 -26 -40z m39 17 c0 -8 -7 -15 -15 -15 -8 0 -15 7 -15 15 0 8 7 15 15
15 8 0 15 -7 15 -15z"/>
<path d="M2890 1375 c-7 -20 -9 -39 -6 -42 3 -4 6 -1 6 5 0 7 9 12 20 12 11 0
20 -4 20 -10 0 -5 4 -10 9 -10 11 0 -14 73 -27 78 -6 2 -15 -13 -22 -33z m30
-5 c0 -5 -4 -10 -10 -10 -5 0 -10 5 -10 10 0 6 5 10 10 10 6 0 10 -4 10 -10z"/>
<path d="M2961 1368 c2 -31 3 -35 6 -15 4 23 7 26 19 16 18 -14 18 0 0 24 -20
27 -26 21 -25 -25z"/>
<path d="M3008 1380 c-3 -19 -2 -39 2 -43 11 -12 17 24 10 53 -6 23 -7 23 -12
-10z"/>
<path d="M3220 1370 c0 -39 1 -40 33 -39 23 1 26 3 10 6 -19 4 -23 11 -23 39
0 19 -4 34 -10 34 -5 0 -10 -18 -10 -40z"/>
<path d="M3461 1374 c-7 -19 -10 -38 -7 -41 3 -4 6 -1 6 5 0 7 9 12 20 12 11
0 20 -5 20 -12 0 -6 3 -9 6 -5 7 7 -15 77 -25 77 -4 0 -13 -16 -20 -36z m29
-4 c0 -5 -4 -10 -10 -10 -5 0 -10 5 -10 10 0 6 5 10 10 10 6 0 10 -4 10 -10z"/>
<path d="M3531 1368 c2 -31 3 -35 6 -15 4 23 7 26 19 16 18 -14 18 0 0 24 -20
27 -26 21 -25 -25z"/>
<path d="M3577 1378 c-3 -18 -1 -37 4 -42 5 -6 9 7 9 32 0 50 -6 54 -13 10z"/>
</g>
</svg>
