<?xml version="1.0" standalone="no"?>
<!DOCTYPE svg PUBLIC "-//W3C//DTD SVG 20010904//EN"
 "http://www.w3.org/TR/2001/REC-SVG-20010904/DTD/svg10.dtd">
<svg version="1.0" xmlns="http://www.w3.org/2000/svg"
 width="318.000000pt" height="159.000000pt" viewBox="0 0 318.000000 159.000000"
 preserveAspectRatio="xMidYMid meet">

<g transform="translate(0.000000,159.000000) scale(0.100000,-0.100000)"
fill="#000000" stroke="none">
<path d="M0 795 l0 -795 795 0 795 0 0 795 0 795 -795 0 -795 0 0 -795z m754
533 c-3 -4 -13 -8 -23 -8 -44 0 -122 -33 -176 -75 -55 -43 -75 -51 -81 -29 -4
12 112 99 151 114 72 28 147 27 129 -2z m0 -50 c0 -10 -1 -63 -2 -119 -2 -91
-3 -99 -18 -85 -29 29 -64 12 -64 -31 0 -27 42 -42 65 -23 13 11 15 6 15 -36
l0 -49 -124 124 -125 125 60 44 c68 51 120 73 164 69 21 -1 30 -7 29 -19z
m205 -84 c29 -13 75 -40 102 -60 38 -28 47 -39 39 -49 -9 -11 -24 -5 -75 31
-68 48 -131 74 -176 74 -23 0 -29 5 -29 21 0 19 4 20 43 14 23 -4 66 -18 96
-31z m-50 -33 l23 -6 -26 -14 c-38 -21 -45 -59 -16 -83 28 -23 45 -23 69 1 16
16 18 26 11 51 l-9 30 55 -37 c29 -21 54 -42 54 -46 0 -13 -83 -86 -97 -87 -7
0 -13 6 -13 14 0 7 -7 19 -15 26 -23 19 -65 -3 -65 -34 0 -23 -16 -36 -46 -36
-11 0 -14 22 -14 115 l0 115 33 -1 c17 -1 43 -4 56 -8z m-389 -101 c0 -4 -14
-23 -32 -41 -35 -38 -78 -123 -78 -155 0 -20 -27 -41 -38 -30 -7 8 17 94 37
135 35 68 111 131 111 91z m638 -9 c21 -29 20 -41 -4 -41 -15 0 -47 48 -39 60
10 16 20 12 43 -19z m-544 -80 l68 -68 -30 -6 c-16 -3 -43 -9 -58 -13 l-29 -6
23 16 c32 24 30 70 -4 93 -24 15 -29 15 -53 2 -18 -10 -27 -24 -29 -47 -3 -26
2 -35 28 -50 l31 -19 -57 -12 c-74 -14 -74 -14 -74 7 1 43 83 172 110 172 3 0
36 -31 74 -69z m496 54 c16 -20 14 -22 -35 -30 l-40 -8 24 27 c28 30 34 31 51
11z m46 -119 c-6 -26 11 -76 26 -76 12 0 10 -28 -2 -35 -6 -4 -24 -10 -41 -15
-23 -7 -31 -6 -36 7 -3 8 0 19 8 24 10 7 7 9 -11 7 -19 -2 -25 -9 -25 -27 0
-23 -8 -27 -90 -48 -49 -12 -96 -23 -102 -23 -22 0 -14 35 18 78 17 23 26 42
20 42 -6 0 -11 -4 -11 -9 0 -5 -9 -11 -20 -14 -16 -4 -20 0 -20 23 0 26 4 29
65 44 35 9 69 16 75 16 19 0 10 -23 -30 -77 -41 -54 -41 -69 0 -33 17 15 26
17 36 9 11 -9 16 -5 25 17 6 16 11 44 10 61 0 28 4 34 32 42 18 5 43 10 56 10
20 1 22 -3 17 -23z m-296 -57 c0 -6 -16 -33 -36 -60 -25 -34 -31 -49 -21 -49
8 0 17 7 21 15 10 27 36 17 36 -13 0 -27 -4 -30 -52 -41 -29 -6 -63 -14 -75
-17 -33 -9 -30 23 8 75 17 24 28 45 25 48 -3 3 -8 -2 -12 -11 -10 -26 -44 -20
-44 9 0 20 7 26 43 35 23 6 47 13 52 15 22 8 55 4 55 -6z m-169 -62 c-14 -14
-15 -77 -1 -77 12 0 14 -27 2 -34 -4 -2 -23 -7 -42 -11 l-36 -6 0 74 0 75 41
9 c31 6 41 5 43 -5 2 -8 -1 -19 -7 -25z m-93 -25 c4 -30 -21 -59 -59 -67 -25
-6 -28 -10 -23 -35 6 -26 4 -28 -36 -35 -48 -8 -59 -2 -42 25 15 24 16 80 1
80 -6 0 -9 8 -7 17 4 20 76 42 128 40 28 -2 36 -6 38 -25z m662 -40 c0 -5 -5
-35 -11 -68 -19 -102 -90 -207 -121 -176 -8 8 -1 22 25 51 34 38 67 119 67
166 0 12 3 25 7 28 9 10 33 9 33 -1z m-61 -34 c0 -18 -4 -42 -9 -53 -8 -18 -9
-18 -9 6 -1 14 -10 34 -22 45 l-21 19 24 6 c37 11 38 11 37 -23z m-128 -12
c-20 -24 -9 -69 22 -86 25 -14 30 -13 57 2 17 9 30 13 30 9 0 -10 -55 -87 -68
-94 -4 -4 -44 30 -87 74 -79 78 -79 79 -48 79 17 0 44 7 59 15 37 19 50 19 35
1z m-58 -104 l78 -79 -53 -36 c-50 -34 -145 -67 -195 -67 -23 0 -23 2 -23 119
l0 119 38 10 c68 18 74 15 155 -66z m295 23 c-5 -59 6 -75 17 -25 6 29 25 52
25 31 0 -24 -35 -81 -49 -80 -49 2 -52 11 -24 72 14 31 28 57 31 57 2 0 2 -25
0 -55z m-599 -26 c27 -20 31 -20 60 -6 l31 15 0 -84 c0 -46 0 -87 0 -91 1 -16
-44 -14 -87 2 -24 9 -71 35 -104 57 l-60 41 33 34 c54 57 84 64 127 32z m-141
-25 c-24 -25 -27 -26 -48 -11 l-23 16 34 9 c58 17 66 14 37 -14z m-62 -25 c15
-17 16 -22 4 -29 -10 -6 -22 -2 -37 12 -13 12 -23 25 -23 30 0 16 37 8 56 -13z
m744 -29 c0 -5 -4 -10 -10 -10 -5 0 -10 -5 -10 -12 0 -9 3 -9 12 0 18 18 38
14 38 -8 0 -26 -22 -35 -49 -20 -24 12 -27 30 -9 48 15 15 28 16 28 2z m-661
-34 c63 -46 107 -68 164 -81 59 -13 65 -29 13 -33 -65 -6 -261 105 -242 136
10 17 13 16 65 -22z m529 6 c5 -15 -84 -78 -138 -97 -25 -9 -71 -18 -102 -22
-48 -5 -58 -3 -58 10 0 10 17 18 61 26 67 11 150 46 189 79 26 22 41 24 48 4z
m-649 -58 c18 -5 22 -4 16 5 -6 10 -3 11 14 1 l22 -11 -21 -30 -21 -29 -45 36
c-24 20 -44 39 -44 41 0 5 33 0 79 -13z m736 -4 c16 -17 16 -21 2 -35 -9 -8
-22 -15 -29 -15 -21 1 -51 28 -43 40 5 8 13 6 26 -6 11 -9 22 -14 27 -10 4 4
-1 13 -11 20 -9 7 -17 16 -17 20 0 13 28 5 45 -14z m-585 -50 c0 -3 -7 -15
-15 -26 -8 -10 -15 -27 -15 -36 0 -22 -4 -22 -35 -2 -29 19 -31 31 -11 53 14
16 76 25 76 11z m498 -26 c2 -11 -3 -26 -11 -33 -29 -24 -70 17 -46 46 17 20
53 12 57 -13z m-123 -5 c-4 -5 -3 -9 2 -9 10 0 35 -52 28 -59 -7 -7 -21 9 -39
43 -15 30 -13 51 5 40 5 -3 7 -10 4 -15z m-305 -24 c18 -22 3 -57 -23 -53 -22
3 -33 28 -23 54 7 18 30 18 46 -1z m78 -30 c-1 -28 -6 -44 -12 -42 -6 2 -11 9
-10 15 1 7 2 26 3 42 0 17 6 30 11 30 6 0 9 -20 8 -45z m72 35 c0 -5 -4 -10
-10 -10 -5 0 -10 5 -10 10 0 6 5 10 10 10 6 0 10 -4 10 -10z m105 -45 c0 -23
-5 -30 -19 -30 -24 0 -41 27 -33 49 4 11 15 16 29 14 18 -2 23 -10 23 -33z
m-105 13 c0 -7 3 -24 7 -38 6 -22 5 -24 -10 -11 -18 15 -23 61 -7 61 6 0 10
-6 10 -12z"/>
<path d="M651 1246 c-38 -46 25 -111 69 -71 25 23 26 47 2 68 -23 21 -56 22
-71 3z"/>
<path d="M685 1120 c-10 -11 -15 -20 -11 -20 4 0 16 9 28 20 12 11 17 20 11
20 -5 0 -18 -9 -28 -20z"/>
<path d="M989 1033 c-13 -16 -12 -17 4 -4 9 7 17 15 17 17 0 8 -8 3 -21 -13z"/>
<path d="M1091 854 c0 -11 3 -14 6 -6 3 7 2 16 -1 19 -3 4 -6 -2 -5 -13z"/>
<path d="M510 735 c0 -9 6 -12 15 -9 8 4 15 10 15 15 0 5 -7 9 -15 9 -8 0 -15
-7 -15 -15z"/>
<path d="M1018 620 c12 -11 24 -20 28 -20 4 0 -1 9 -11 20 -10 11 -23 20 -28
20 -6 0 -1 -9 11 -20z"/>
<path d="M876 624 c-21 -21 -20 -37 5 -60 22 -19 43 -13 63 19 8 12 5 21 -8
36 -23 25 -39 26 -60 5z"/>
<path d="M962 528 c-22 -22 -14 -57 13 -64 35 -9 55 2 55 29 0 27 -17 47 -40
47 -9 0 -21 -5 -28 -12z"/>
<path d="M686 527 c-22 -16 -18 -55 7 -71 39 -24 79 44 41 71 -10 7 -21 13
-24 13 -3 0 -14 -6 -24 -13z"/>
<path d="M765 520 c10 -11 20 -20 23 -20 3 0 -3 9 -13 20 -10 11 -20 20 -23
20 -3 0 3 -9 13 -20z"/>
<path d="M1245 450 c-3 -6 1 -7 9 -4 18 7 21 14 7 14 -6 0 -13 -4 -16 -10z"/>
<path d="M555 330 c-4 -6 -3 -16 3 -22 6 -6 12 -6 17 2 4 6 3 16 -3 22 -6 6
-12 6 -17 -2z"/>
<path d="M1075 330 c-7 -12 2 -30 16 -30 12 0 12 27 0 35 -5 3 -12 1 -16 -5z"/>
<path d="M658 263 c7 -3 16 -2 19 1 4 3 -2 6 -13 5 -11 0 -14 -3 -6 -6z"/>
<path d="M910 255 c0 -9 5 -15 11 -13 6 2 11 8 11 13 0 5 -5 11 -11 13 -6 2
-11 -4 -11 -13z"/>
<path d="M2250 1386 c-65 -13 -103 -35 -195 -107 l-66 -52 47 -48 48 -48 -45
-40 c-53 -46 -105 -139 -115 -202 -3 -24 -12 -54 -20 -65 -13 -21 -96 -286
-91 -291 2 -1 65 -25 140 -53 75 -27 158 -65 185 -84 66 -47 123 -74 182 -87
68 -14 207 4 279 37 75 34 183 116 214 162 30 46 57 131 57 182 0 19 6 45 14
56 16 22 60 249 53 268 -3 6 -49 31 -103 55 -55 25 -126 65 -159 89 -85 63
-166 99 -241 107 l-64 7 0 64 0 64 -32 -1 c-18 0 -58 -6 -88 -13z m86 -65 c-4
-6 -18 -11 -30 -11 -41 0 -108 -29 -161 -70 -49 -38 -85 -51 -85 -31 0 11 95
84 139 106 40 20 122 35 135 24 4 -4 5 -12 2 -18z m4 -151 l0 -120 -20 20
c-25 25 -32 25 -56 -1 -14 -15 -16 -24 -8 -37 14 -21 50 -27 70 -12 12 11 14
5 14 -34 0 -25 -3 -46 -8 -46 -4 0 -60 53 -125 118 l-118 119 55 42 c61 47
113 70 164 71 l32 0 0 -120z m215 10 c80 -40 134 -85 119 -100 -8 -8 -26 -1
-66 27 -64 45 -117 69 -170 78 -26 4 -38 11 -38 22 0 24 81 10 155 -27z m-80
-21 c23 -7 34 -14 25 -17 -24 -8 -50 -34 -50 -50 0 -40 61 -67 88 -40 16 16
15 60 0 77 -7 8 16 -5 51 -29 l63 -42 -43 -44 c-44 -45 -69 -56 -69 -29 0 8
-9 19 -20 25 -28 15 -60 -4 -60 -34 0 -23 -17 -36 -46 -36 -11 0 -14 22 -14
115 0 129 -2 125 75 104z m275 -141 c0 -18 -37 -5 -54 18 -15 22 -16 28 -5 35
10 6 21 1 36 -19 13 -15 23 -30 23 -34z m-646 43 c3 -5 -8 -24 -26 -42 -35
-39 -78 -123 -78 -156 0 -17 -6 -23 -21 -23 -18 0 -20 4 -14 33 12 57 45 121
83 160 37 38 47 43 56 28z m52 -52 c25 -28 26 -30 6 -20 -19 10 -28 9 -48 -4
-34 -22 -33 -69 2 -92 l27 -17 -24 -7 c-13 -3 -41 -9 -61 -13 -34 -6 -38 -5
-38 14 0 30 37 100 73 138 17 17 31 32 32 32 1 0 14 -14 31 -31z m537 -6 c-4
-1 -26 -6 -47 -12 l-39 -10 28 29 c27 28 29 29 48 13 10 -10 15 -18 10 -20z
m-480 -110 c-61 -16 -74 -16 -43 0 19 10 25 21 25 45 l0 31 33 -32 33 -32 -48
-12z m514 19 c-4 -19 1 -40 14 -61 20 -33 25 -61 10 -61 -5 0 -23 -3 -41 -7
-31 -6 -33 -5 -27 20 6 21 4 24 -13 20 -15 -4 -18 -11 -14 -28 4 -18 0 -24
-21 -29 -15 -4 -30 -4 -33 -1 -3 3 2 27 11 53 9 26 14 57 11 69 -5 19 0 23 38
33 23 6 48 13 53 15 6 2 12 4 14 4 2 1 1 -12 -2 -27z m-137 -29 c0 -10 -14
-36 -30 -57 -31 -41 -34 -61 -5 -32 24 24 35 20 35 -13 0 -27 -3 -29 -67 -43
-65 -14 -68 -13 -71 4 -2 11 7 33 20 51 38 50 45 65 21 45 -27 -25 -43 -22
-43 7 0 24 7 28 95 48 38 9 45 7 45 -10z m-150 -34 c0 -6 -16 -33 -36 -60 -26
-36 -32 -49 -20 -49 9 0 16 7 16 15 0 8 9 15 20 15 15 0 20 -7 20 -25 0 -25
-25 -37 -112 -51 -48 -8 -50 7 -7 65 17 24 28 46 24 49 -4 4 -11 -1 -16 -11
-16 -28 -41 -21 -37 10 3 24 9 29 53 40 66 15 95 15 95 2z m-164 -93 l0 -75
-36 -9 -36 -9 0 74 c0 73 1 74 31 82 16 5 32 10 35 10 3 1 6 -32 6 -73z m-102
28 c9 -8 16 -21 16 -28 0 -17 -28 -42 -61 -55 -21 -8 -26 -15 -22 -34 5 -26 3
-27 -59 -41 -23 -5 -28 -3 -28 14 0 11 5 20 10 20 6 0 10 16 10 35 0 19 -4 35
-10 35 -5 0 -10 9 -10 19 0 16 13 23 63 34 34 9 65 16 69 16 4 1 14 -6 22 -15z
m651 -98 c-15 -99 -73 -206 -111 -206 -22 0 -17 18 17 59 32 40 59 115 59 162
0 26 16 41 33 32 5 -3 6 -24 2 -47z m-56 -13 c-11 -56 -19 -67 -19 -26 0 17
-7 36 -15 43 -19 16 -10 30 19 30 22 0 23 -2 15 -47z m-131 -2 c-28 -46 34
-97 88 -72 14 6 24 7 24 1 0 -16 -62 -81 -75 -78 -6 2 -42 36 -79 76 l-68 72
33 0 c19 0 41 5 49 10 27 17 42 13 28 -9z m-54 -90 l79 -79 -42 -30 c-45 -33
-108 -56 -178 -67 l-43 -7 0 116 c0 63 3 117 8 119 4 3 23 8 42 12 34 7 35 6
13 -10 -13 -9 -23 -25 -23 -35 0 -39 70 -50 84 -14 7 18 -10 54 -24 54 -6 0
-10 5 -10 10 0 21 18 8 94 -69z m-297 -1 c32 -25 44 -25 77 1 l27 21 -3 -98
-3 -99 -40 2 c-43 3 -114 36 -171 79 l-35 27 33 35 c30 31 60 50 81 51 5 1 20
-8 34 -19z m-140 -27 c-25 -26 -28 -26 -43 -11 -16 16 -15 17 12 23 16 4 34 8
39 10 20 7 19 5 -8 -22z m-54 -21 c13 -14 14 -21 5 -30 -9 -9 -17 -7 -35 10
-13 12 -23 25 -23 30 0 15 37 8 53 -10z m77 -62 c51 -40 127 -77 178 -85 46
-7 53 -28 10 -33 -56 -7 -248 96 -248 134 0 22 18 17 60 -16z m508 -22 c-51
-41 -106 -68 -168 -82 -83 -20 -110 -20 -110 -1 0 15 10 18 84 30 39 7 132 49
171 78 15 11 23 13 33 4 11 -9 9 -14 -10 -29z"/>
<path d="M2230 1236 c-19 -24 -8 -60 23 -70 34 -12 61 1 65 33 5 30 -15 51
-48 51 -15 0 -33 -7 -40 -14z"/>
<path d="M2274 1118 l-19 -23 23 19 c21 18 27 26 19 26 -2 0 -12 -10 -23 -22z"/>
<path d="M2660 849 c0 -5 5 -7 10 -4 6 3 10 8 10 11 0 2 -4 4 -10 4 -5 0 -10
-5 -10 -11z"/>
<path d="M2100 740 c0 -5 5 -10 10 -10 6 0 10 5 10 10 0 6 -4 10 -10 10 -5 0
-10 -4 -10 -10z"/>
<path d="M2595 630 c10 -11 20 -20 23 -20 3 0 -3 9 -13 20 -10 11 -20 20 -23
20 -3 0 3 -9 13 -20z"/>
<path d="M2540 536 c-6 -8 -10 -25 -8 -38 2 -19 9 -23 38 -23 29 0 36 4 38 23
4 28 -14 52 -38 52 -10 0 -23 -7 -30 -14z"/>
<path d="M2267 532 c-24 -26 -21 -51 8 -64 19 -8 28 -8 40 2 21 18 19 57 -4
70 -25 13 -25 13 -44 -8z"/>
<path d="M2345 530 c10 -11 20 -20 23 -20 3 0 -3 9 -13 20 -10 11 -20 20 -23
20 -3 0 3 -9 13 -20z"/>
<path d="M2897 616 c-4 -10 -5 -21 -2 -24 9 -9 17 6 13 25 -3 17 -4 17 -11 -1z"/>
<path d="M2940 570 c-6 -11 -7 -20 -2 -20 6 0 12 9 15 20 3 11 3 20 1 20 -2 0
-8 -9 -14 -20z"/>
<path d="M2875 559 c-4 -6 -5 -12 -2 -15 2 -3 7 2 10 11 7 17 1 20 -8 4z"/>
<path d="M2867 509 c7 -7 15 -10 18 -7 3 3 -2 9 -12 12 -14 6 -15 5 -6 -5z"/>
<path d="M2822 468 c-17 -17 -15 -38 3 -38 8 0 15 -4 15 -10 0 -17 19 -11 30
10 9 16 7 22 -7 27 -10 4 -21 10 -24 15 -3 4 -10 3 -17 -4z m18 -12 c0 -3 -4
-8 -10 -11 -5 -3 -10 -1 -10 4 0 6 5 11 10 11 6 0 10 -2 10 -4z m20 -16 c0 -5
-5 -10 -11 -10 -5 0 -7 5 -4 10 3 6 8 10 11 10 2 0 4 -4 4 -10z"/>
<path d="M2044 401 c4 -5 21 -20 39 -32 l32 -23 -20 23 c-22 25 -62 51 -51 32z"/>
<path d="M2770 392 c0 -4 5 -13 12 -20 6 -6 9 -15 5 -19 -4 -4 -13 -1 -19 5
-7 7 -18 12 -26 12 -9 0 -4 -9 12 -21 26 -21 28 -21 44 -3 17 17 17 19 0 36
-20 20 -28 23 -28 10z"/>
<path d="M2010 354 c0 -1 8 -8 17 -15 9 -8 14 -9 10 -2 -4 6 -1 13 5 16 7 3 3
4 -9 4 -13 -1 -23 -2 -23 -3z"/>
<path d="M2670 316 c-18 -22 -5 -48 22 -44 17 2 23 10 23 28 0 29 -26 38 -45
16z m38 -19 c2 -10 -3 -17 -11 -17 -16 0 -30 24 -19 34 10 10 27 1 30 -17z"/>
<path d="M2099 303 c-13 -16 -12 -17 4 -4 16 13 21 21 13 21 -2 0 -10 -8 -17
-17z"/>
<path d="M2215 311 c-3 -6 -12 -8 -20 -4 -18 6 -45 -14 -45 -34 0 -7 10 -17
23 -22 18 -7 24 -4 36 18 8 14 18 29 24 32 6 4 5 9 -1 13 -6 3 -13 2 -17 -3z
m-23 -43 c-15 -15 -26 -4 -18 18 5 13 9 15 18 6 9 -9 9 -15 0 -24z"/>
<path d="M2435 270 c-3 -5 -1 -10 4 -10 6 0 11 5 11 10 0 6 -2 10 -4 10 -3 0
-8 -4 -11 -10z"/>
<path d="M2606 255 c9 -14 20 -25 25 -25 5 0 2 11 -7 25 -9 14 -20 25 -25 25
-5 0 -2 -11 7 -25z"/>
<path d="M2267 264 c-4 -4 -7 -18 -7 -31 0 -18 5 -23 23 -22 16 1 18 2 5 6
-20 5 -20 5 -12 27 3 9 11 13 16 10 6 -4 5 -10 -3 -15 -11 -7 -10 -9 4 -9 12
0 17 6 15 17 -3 19 -29 29 -41 17z"/>
<path d="M2365 233 c0 -20 5 -38 10 -40 7 -2 9 12 7 37 -5 50 -18 53 -17 3z"/>
<path d="M2507 246 c-8 -21 17 -50 37 -43 9 4 16 12 16 18 0 8 -4 9 -13 0 -15
-12 -27 -5 -27 17 0 8 6 12 15 8 8 -3 15 -1 15 4 0 15 -37 12 -43 -4z"/>
<path d="M2438 220 c2 -16 9 -30 14 -30 6 0 7 7 4 16 -3 9 -6 22 -6 30 0 8 -4
14 -8 14 -5 0 -7 -13 -4 -30z"/>
</g>
</svg>
