<?xml version="1.0" standalone="no"?>
<!DOCTYPE svg PUBLIC "-//W3C//DTD SVG 20010904//EN"
 "http://www.w3.org/TR/2001/REC-SVG-20010904/DTD/svg10.dtd">
<svg version="1.0" xmlns="http://www.w3.org/2000/svg"
 width="626.000000pt" height="626.000000pt" viewBox="0 0 626.000000 626.000000"
 preserveAspectRatio="xMidYMid meet">

<g transform="translate(0.000000,626.000000) scale(0.100000,-0.100000)"
fill="#000000" stroke="none">
<path d="M2850 5236 l-135 -11 0 -45 0 -45 94 4 c77 3 92 1 85 -10 -4 -8 -43
-62 -86 -120 -68 -93 -78 -112 -78 -148 0 -24 5 -43 13 -46 6 -2 84 1 172 8
156 12 160 13 163 36 2 12 1 34 -2 47 -6 23 -7 23 -103 17 l-97 -6 19 29 c10
16 49 71 87 123 66 91 78 123 62 165 -7 18 -1 18 -194 2z"/>
<path d="M3225 5237 c-9 -22 -33 -392 -26 -398 9 -10 295 -27 304 -19 5 4 7
25 5 46 -2 30 -7 39 -23 41 -11 1 -55 5 -97 8 l-78 7 0 33 0 33 95 -5 95 -6 0
46 0 45 -90 8 -90 7 0 28 c0 15 3 30 8 32 4 2 47 1 96 -2 87 -6 88 -6 98 18
20 54 9 65 -67 72 -192 18 -226 19 -230 6z"/>
<path d="M2450 5180 c-41 -10 -110 -26 -154 -35 l-78 -18 5 -39 c3 -22 8 -42
11 -46 3 -3 41 2 84 11 42 9 83 17 90 17 6 0 -20 -60 -59 -134 -68 -132 -70
-136 -59 -176 8 -31 15 -40 28 -36 9 2 82 19 162 36 80 18 148 35 152 39 4 4
3 23 -3 44 -12 43 -16 44 -118 21 -40 -9 -74 -14 -77 -11 -3 3 24 64 61 136
62 120 66 133 58 167 -4 21 -13 39 -18 40 -6 1 -44 -6 -85 -16z"/>
<path d="M3705 5188 c-19 -60 -83 -384 -77 -390 4 -4 28 -11 54 -14 l45 -6 14
66 c9 48 17 66 28 66 30 0 42 -17 57 -76 9 -32 20 -66 25 -76 8 -15 98 -42
108 -32 2 2 -5 39 -17 81 -19 70 -19 79 -5 88 47 30 64 50 74 87 28 105 -18
154 -180 192 -130 30 -121 29 -126 14z m152 -113 c40 -8 57 -28 49 -59 -7 -29
-28 -35 -85 -23 -42 8 -43 10 -37 39 3 17 6 37 6 45 0 9 7 12 18 9 9 -2 31 -7
49 -11z"/>
<path d="M1993 5050 l-43 -19 16 -43 c9 -24 38 -106 65 -183 27 -77 53 -143
58 -148 9 -9 77 8 93 22 10 8 -123 383 -137 387 -5 2 -29 -5 -52 -16z"/>
<path d="M4192 5043 c-72 -200 -122 -349 -118 -358 4 -12 85 -39 93 -32 6 6
133 365 133 377 0 8 -71 40 -89 40 -5 0 -14 -12 -19 -27z"/>
<path d="M1598 4879 c-54 -27 -98 -55 -98 -62 0 -22 169 -357 180 -357 14 0
90 39 90 45 0 3 -13 32 -29 64 l-30 58 50 24 c69 32 119 89 119 134 0 89 -53
145 -134 144 -41 0 -70 -10 -148 -50z m164 -63 c21 -30 8 -56 -42 -81 l-50
-25 -20 41 c-12 22 -20 43 -18 45 2 1 23 12 47 23 43 19 69 18 83 -3z"/>
<path d="M4410 4771 l-155 -148 35 -22 c44 -26 72 -27 95 -1 17 19 18 19 86
-16 66 -33 69 -36 69 -69 0 -29 6 -39 33 -55 61 -37 60 -40 89 186 15 114 25
211 22 216 -6 9 -99 58 -111 58 -4 0 -78 -67 -163 -149z m159 -51 c-6 -36 -12
-66 -14 -69 -3 -2 -23 4 -45 14 l-41 18 52 53 c29 30 54 52 56 51 1 -2 -2 -32
-8 -67z"/>
<path d="M2985 4494 c-312 -19 -573 -67 -857 -160 -153 -50 -192 -75 -208
-134 -12 -44 -7 -71 28 -150 30 -68 56 -97 107 -120 l40 -17 143 -345 c227
-548 205 -477 210 -668 5 -184 10 -200 68 -200 22 0 38 7 48 22 l15 21 10 -24
c5 -13 72 -175 149 -359 145 -350 158 -391 165 -503 5 -77 24 -107 68 -107 19
0 35 9 51 30 l23 29 29 -70 c24 -58 32 -70 50 -67 20 3 59 81 130 263 13 30
19 36 28 27 16 -16 60 -15 82 1 10 8 20 35 26 72 6 42 97 273 303 770 l295
710 36 6 c20 3 40 9 44 13 4 4 10 56 13 114 5 92 11 119 41 191 32 76 38 85
72 96 51 18 70 37 100 102 47 99 52 133 28 184 -26 54 -48 67 -183 112 -201
68 -423 116 -639 141 -140 16 -411 26 -515 20z m415 -54 c252 -23 472 -68 712
-146 185 -60 207 -90 155 -211 -46 -105 -84 -127 -182 -100 -175 48 -213 58
-317 81 -210 47 -304 58 -560 63 -261 6 -395 -3 -593 -38 -120 -22 -354 -79
-424 -104 -61 -21 -123 -19 -154 5 -29 23 -77 136 -77 181 0 48 35 72 171 117
226 75 485 130 709 151 137 12 426 13 560 1z m-54 -360 c235 -19 454 -62 670
-131 l93 -30 -31 -72 c-25 -59 -32 -91 -37 -177 -5 -87 -9 -105 -23 -108 -15
-3 -17 13 -20 141 -3 126 -6 148 -22 166 -48 53 -116 6 -116 -80 0 -54 -17
-65 -42 -27 -16 24 -48 19 -48 -7 0 -23 45 -65 70 -65 11 0 32 11 45 25 20 19
25 34 25 75 0 43 3 50 20 50 19 0 20 -7 20 -147 0 -113 -4 -159 -17 -195 l-16
-47 -42 34 c-47 39 -119 74 -152 75 -45 0 -53 10 -28 34 25 25 55 111 55 159
0 71 -68 149 -177 199 -49 23 -83 31 -147 35 -96 6 -142 -5 -192 -49 -40 -35
-77 -139 -67 -189 9 -45 57 -89 98 -89 51 0 70 25 66 85 -1 19 -1 19 10 2 14
-24 6 -53 -42 -156 -21 -46 -39 -90 -39 -97 0 -8 24 -20 58 -30 31 -9 60 -18
63 -20 3 -2 -8 -31 -25 -66 -27 -55 -31 -72 -31 -148 0 -73 4 -93 28 -142 52
-106 175 -188 282 -188 25 0 45 -3 45 -7 0 -4 -73 -181 -161 -395 -89 -213
-166 -414 -173 -445 -7 -40 -16 -58 -26 -58 -11 0 -16 15 -18 62 -3 53 -7 65
-29 83 -33 26 -49 25 -78 -5 -22 -21 -25 -33 -25 -95 0 -56 -3 -72 -16 -77
-20 -8 -34 13 -34 54 0 58 -68 83 -108 40 -19 -20 -22 -36 -24 -142 -2 -99 -6
-120 -18 -120 -11 0 -17 18 -21 75 -8 90 -24 156 -56 228 -13 29 -23 57 -23
62 0 5 21 2 46 -7 66 -22 168 -13 238 21 65 32 138 109 161 170 16 42 19 44
66 50 29 4 49 12 49 19 0 7 -11 57 -25 111 -29 116 -31 139 -8 157 15 13 15
12 4 -9 -27 -52 20 -110 78 -97 17 3 44 23 62 42 30 35 31 40 27 103 -6 84
-28 129 -79 162 -116 75 -326 57 -436 -37 -23 -19 -52 -35 -65 -35 -89 0 -201
-66 -255 -150 -21 -32 -40 -59 -43 -59 -3 0 -29 57 -58 128 -51 125 -53 132
-50 213 2 66 6 83 18 83 12 0 16 -20 20 -103 4 -88 8 -106 24 -118 32 -23 72
-17 95 12 19 24 21 40 21 149 0 67 3 125 7 128 15 15 33 -18 33 -62 0 -52 6
-63 37 -80 44 -23 93 7 93 58 0 28 -36 28 -43 0 -4 -13 -12 -20 -24 -17 -14 2
-19 14 -21 58 -4 63 -22 90 -64 90 -52 0 -62 -26 -68 -173 -4 -108 -8 -132
-20 -132 -12 0 -16 20 -20 100 -3 55 -9 106 -13 113 -17 25 -56 33 -88 17
l-29 -16 0 -142 c0 -146 -6 -174 -34 -164 -14 5 -16 27 -16 150 0 132 -4 164
-35 272 -5 17 2 25 40 43 25 12 48 28 51 36 3 8 -24 57 -60 109 -64 92 -96
161 -37 80 44 -61 100 -102 170 -123 80 -25 122 -25 204 0 85 26 155 88 197
174 26 53 31 74 31 138 0 142 -70 252 -198 311 -73 33 -198 31 -275 -5 -68
-32 -130 -94 -161 -159 -19 -43 -26 -49 -53 -49 -17 0 -52 -7 -79 -17 -27 -9
-50 -12 -52 -7 -2 5 -23 56 -47 114 l-44 105 67 23 c337 117 769 171 1137 142z
m189 -161 c77 -29 134 -74 155 -123 18 -39 18 -47 5 -97 -20 -77 -71 -117
-114 -90 -12 8 -12 12 -2 25 7 8 19 12 27 9 20 -8 44 15 44 43 0 29 -31 44
-89 44 -58 0 -78 -29 -102 -146 -11 -54 -22 -100 -24 -102 -7 -8 -115 29 -115
39 0 5 9 27 19 48 38 74 62 158 51 185 -11 31 -47 55 -93 63 -29 4 -37 1 -46
-15 -14 -26 -5 -49 20 -57 21 -7 22 -36 2 -42 -7 -3 -24 7 -39 22 -30 30 -30
68 -1 137 36 85 163 109 302 57z m-755 -133 c0 -3 -4 -8 -10 -11 -5 -3 -10 -1
-10 4 0 6 5 11 10 11 6 0 10 -2 10 -4z m-250 -26 c0 -5 -4 -10 -10 -10 -5 0
-10 5 -10 10 0 6 5 10 10 10 6 0 10 -4 10 -10z m1022 -86 c-26 -18 -30 -75 -7
-94 21 -18 19 -24 -15 -37 -27 -10 -30 -9 -30 8 0 30 21 112 33 127 5 6 17 12
25 12 12 0 11 -4 -6 -16z m-1102 -10 c30 -12 47 -28 70 -69 16 -29 30 -62 30
-73 0 -27 -43 -77 -58 -68 -16 10 -15 31 3 46 19 16 19 44 0 60 -22 18 -92
-15 -112 -53 -20 -40 -11 -67 53 -163 30 -44 54 -83 54 -86 0 -7 -59 -32 -64
-27 -7 8 -166 397 -166 407 0 10 35 24 85 35 39 9 65 7 105 -9z m470 -54 c0
-5 -4 -10 -10 -10 -5 0 -10 5 -10 10 0 6 5 10 10 10 6 0 10 -4 10 -10z m-200
-14 c0 -3 -4 -8 -10 -11 -5 -3 -10 -1 -10 4 0 6 5 11 10 11 6 0 10 -2 10 -4z
m45 -196 c3 -5 1 -10 -4 -10 -6 0 -11 5 -11 10 0 6 2 10 4 10 3 0 8 -4 11 -10z
m985 -54 c0 -3 -4 -8 -10 -11 -5 -3 -10 -1 -10 4 0 6 5 11 10 11 6 0 10 -2 10
-4z m-200 -46 c0 -5 -4 -10 -10 -10 -5 0 -10 5 -10 10 0 6 5 10 10 10 6 0 10
-4 10 -10z m-115 -439 c56 -25 73 -49 85 -113 12 -63 2 -101 -29 -117 -49 -27
-72 3 -26 33 28 18 33 47 10 66 -16 14 -81 6 -106 -13 -44 -33 -44 -78 -3
-221 16 -56 10 -65 -41 -66 -16 0 -40 -3 -52 -6 -23 -6 -23 -5 -23 88 0 114
-12 153 -52 174 -34 18 -100 11 -118 -11 -19 -22 -2 -55 31 -62 35 -7 36 -36
2 -41 -60 -9 -105 119 -70 194 18 37 68 73 137 97 65 22 204 22 255 -2z m-535
-221 c0 -5 -5 -10 -11 -10 -5 0 -7 5 -4 10 3 6 8 10 11 10 2 0 4 -4 4 -10z
m290 -90 c0 -5 -4 -10 -10 -10 -5 0 -10 5 -10 10 0 6 5 10 10 10 6 0 10 -4 10
-10z m-70 -94 c0 -3 -4 -8 -10 -11 -5 -3 -10 -1 -10 4 0 6 5 11 10 11 6 0 10
-2 10 -4z m136 -370 c4 -17 -9 -61 -41 -138 -26 -62 -56 -137 -67 -166 -12
-29 -24 -49 -28 -45 -4 4 -24 50 -44 101 -31 80 -36 100 -30 143 8 62 32 67
36 7 4 -51 39 -83 81 -72 36 9 48 32 48 102 1 58 12 92 29 92 5 0 12 -11 16
-24z"/>
<path d="M2982 3208 c2 -48 7 -63 18 -63 11 0 16 15 18 63 3 57 1 62 -18 62
-19 0 -21 -5 -18 -62z"/>
<path d="M1010 3300 l0 -130 90 0 c83 0 90 1 90 20 0 18 -7 20 -65 20 l-65 0
0 35 0 35 60 0 c53 0 60 2 60 20 0 18 -7 20 -60 20 l-60 0 0 30 0 30 65 0 c63
0 65 1 65 25 0 25 -1 25 -90 25 l-90 0 0 -130z"/>
<path d="M1268 3414 c-34 -18 -46 -59 -27 -93 10 -18 32 -31 74 -43 71 -22 83
-32 65 -53 -16 -20 -74 -19 -94 1 -9 8 -27 14 -41 12 -23 -3 -24 -5 -12 -28
19 -38 84 -56 139 -38 90 28 88 109 -2 137 -78 24 -90 30 -90 46 0 34 84 39
105 6 8 -13 45 -15 45 -2 0 58 -97 91 -162 55z"/>
<path d="M1460 3405 c0 -22 4 -25 35 -25 l34 0 3 -102 c3 -98 4 -103 26 -106
22 -3 22 -2 22 102 l0 106 40 0 c36 0 40 3 40 25 l0 25 -100 0 -100 0 0 -25z"/>
<path d="M4686 3409 c-19 -15 -26 -30 -26 -54 0 -19 5 -37 10 -40 7 -4 5 -14
-5 -28 -22 -32 -18 -70 9 -96 19 -18 36 -23 76 -23 64 0 100 28 100 78 0 18
-4 35 -9 39 -6 3 -7 27 -4 54 5 43 3 50 -22 69 -36 28 -94 29 -129 1z m89 -33
c27 -19 13 -46 -25 -46 -38 0 -52 27 -25 46 10 8 22 14 25 14 3 0 15 -6 25
-14z m13 -108 c20 -20 14 -47 -12 -54 -33 -8 -57 -2 -69 18 -23 35 49 68 81
36z"/>
<path d="M4932 3420 c-30 -13 -55 -71 -43 -102 11 -28 38 -53 69 -63 22 -6 22
-7 4 -33 -35 -50 -35 -52 -5 -52 24 0 36 12 76 72 48 73 59 117 34 149 -28 36
-85 49 -135 29z m93 -75 c0 -34 -23 -50 -57 -42 -44 11 -46 61 -4 77 34 12 61
-3 61 -35z"/>
<path d="M1670 3195 c0 -20 5 -25 25 -25 20 0 25 5 25 25 0 20 -5 25 -25 25
-20 0 -25 -5 -25 -25z"/>
<path d="M5100 3195 c0 -20 5 -25 25 -25 20 0 25 5 25 25 0 20 -5 25 -25 25
-20 0 -25 -5 -25 -25z"/>
<path d="M2472 2615 c-12 -25 -22 -56 -22 -69 0 -52 75 -76 104 -34 21 29 20
40 -5 99 -27 62 -48 64 -77 4z m58 -67 c0 -11 -29 -22 -37 -15 -3 3 -2 19 2
34 6 27 7 27 21 9 8 -11 14 -24 14 -28z"/>
<path d="M1673 2072 c-40 -31 -72 -61 -72 -67 -1 -20 81 -105 100 -105 29 0
59 18 59 36 0 8 8 17 18 21 31 11 52 36 52 61 0 23 -63 113 -78 112 -4 -1 -39
-26 -79 -58z m98 -14 c24 -30 24 -58 0 -58 -27 0 -56 47 -40 66 15 18 17 18
40 -8z m-41 -96 c0 -27 -33 -26 -57 2 -23 27 -23 29 -6 48 17 19 18 19 40 -9
13 -15 23 -34 23 -41z"/>
<path d="M4491 2116 c-9 -11 -2 -20 34 -47 24 -19 45 -36 45 -39 0 -3 -34 -5
-77 -5 -47 0 -78 -4 -80 -11 -2 -6 31 -39 73 -73 63 -51 79 -59 92 -49 12 11
7 19 -34 55 l-49 43 80 -2 c105 -4 107 10 11 85 -41 31 -76 57 -79 57 -2 0
-10 -6 -16 -14z"/>
<path d="M1827 1892 c-37 -37 -67 -73 -67 -79 0 -12 88 -93 101 -93 24 0 17
27 -17 61 -36 37 -37 40 -21 56 16 16 19 15 52 -17 27 -26 38 -31 47 -22 9 9
4 20 -22 47 -32 33 -33 36 -17 52 16 16 19 15 55 -20 30 -29 41 -34 50 -25 10
10 2 23 -35 60 -26 26 -50 48 -53 48 -3 0 -36 -30 -73 -68z"/>
<path d="M4350 1948 c0 -8 13 -35 30 -61 33 -52 31 -55 -10 -30 -24 14 -31 14
-44 4 -14 -12 -14 -16 0 -43 9 -16 14 -32 11 -34 -2 -2 -23 10 -46 27 -39 28
-71 33 -71 11 0 -5 37 -35 81 -66 71 -50 84 -56 96 -43 13 13 12 20 -7 57 -12
23 -18 40 -13 38 4 -2 25 -12 46 -23 28 -14 40 -16 49 -7 8 8 -1 32 -40 94
-47 77 -82 109 -82 76z"/>
<path d="M2011 1791 c-29 -29 -26 -50 10 -100 22 -29 28 -46 21 -53 -17 -17
-52 2 -70 39 -20 42 -36 48 -40 15 -11 -73 115 -133 148 -72 14 26 6 51 -27
90 -25 31 -25 60 0 60 16 0 35 -20 52 -52 14 -28 29 -28 33 -1 4 27 -44 80
-80 89 -19 4 -32 0 -47 -15z"/>
<path d="M4113 1750 c-54 -32 -56 -91 -6 -150 45 -54 89 -56 141 -8 38 37 23
100 -38 152 -38 31 -55 32 -97 6z m92 -57 c31 -46 32 -67 3 -87 -31 -22 -35
-21 -69 16 -33 37 -38 81 -11 97 31 18 51 12 77 -26z"/>
<path d="M2187 1698 c-2 -7 6 -22 19 -33 l23 -20 -41 -68 c-29 -48 -38 -71
-30 -79 15 -15 26 -5 68 66 l37 65 29 -15 c25 -13 29 -13 34 1 4 9 5 17 3 19
-13 10 -128 76 -132 76 -3 0 -7 -6 -10 -12z"/>
<path d="M3927 1636 c-37 -20 -56 -36 -54 -46 2 -8 10 -13 18 -11 8 2 21 6 30
8 12 3 27 -14 55 -66 40 -74 41 -76 61 -63 9 6 2 28 -27 83 l-40 76 26 12 c26
12 28 35 3 37 -8 1 -40 -12 -72 -30z"/>
<path d="M2422 1483 c-18 -49 -32 -94 -32 -100 0 -25 31 -12 41 17 12 34 14
34 58 19 63 -22 112 16 97 76 -5 20 -20 32 -62 51 -30 13 -58 24 -62 24 -4 0
-22 -39 -40 -87z m117 12 c34 -33 -23 -61 -63 -32 -16 11 -17 17 -7 36 13 24
42 22 70 -4z"/>
<path d="M3710 1526 c0 -7 7 -33 15 -56 8 -24 14 -45 11 -47 -2 -2 -26 14 -54
37 -46 36 -92 52 -92 33 0 -18 62 -193 68 -193 26 1 32 18 18 51 -7 19 -17 45
-21 59 l-8 24 34 -25 c94 -70 99 -73 111 -61 18 18 -39 192 -64 192 -10 0 -18
-6 -18 -14z"/>
<path d="M2651 1468 c-5 -18 -18 -62 -27 -97 -17 -63 -17 -67 12 -74 13 -4 62
187 50 195 -19 13 -24 9 -35 -24z"/>
<path d="M3495 1470 c-7 -12 22 -168 35 -189 3 -7 13 -9 22 -6 13 5 12 18 -7
102 -20 92 -34 118 -50 93z"/>
<path d="M2750 1456 c0 -16 21 -26 53 -26 51 -1 47 -16 -18 -70 -93 -79 -88
-91 38 -106 48 -6 57 -4 57 9 0 10 -14 18 -42 22 -24 4 -47 9 -51 12 -4 3 22
32 58 65 36 33 65 66 65 73 0 8 -23 17 -63 24 -83 14 -97 14 -97 -3z"/>
<path d="M2962 1424 c2 -15 13 -20 51 -22 l48 -3 -54 -63 c-31 -34 -57 -71
-59 -82 -3 -17 4 -19 80 -22 66 -2 82 0 82 11 0 10 -17 17 -55 22 l-56 7 47
51 c57 63 79 96 71 104 -4 3 -41 8 -83 11 -70 4 -76 3 -72 -14z"/>
<path d="M3200 1341 c-16 -54 -30 -101 -30 -105 0 -15 38 -4 43 13 7 29 86 35
108 8 9 -10 23 -18 33 -16 14 3 10 18 -31 102 -39 80 -50 97 -69 97 -20 0 -27
-12 -54 -99z m76 14 c19 -45 19 -45 -17 -45 -24 0 -30 3 -25 16 3 9 9 27 12
40 8 32 12 30 30 -11z"/>
</g>
</svg>
